<svg xmlns="http://www.w3.org/2000/svg" width="33.671" height="29.08" viewBox="0 0 33.671 29.08">
  <path id="basket-outline" d="M33.141,12.714H25.81l-6.7-10.04A1.549,1.549,0,0,0,17.836,2a1.526,1.526,0,0,0-1.27.689l-6.7,10.025H2.531A1.535,1.535,0,0,0,1,14.244a.972.972,0,0,0,.061.413L4.949,28.845A3.044,3.044,0,0,0,7.887,31.08h19.9a3.076,3.076,0,0,0,2.954-2.235l3.887-14.188.046-.413a1.535,1.535,0,0,0-1.531-1.531M17.836,6.285l4.285,6.428H13.55l4.285-6.428m9.948,21.733H7.887L4.535,15.775H31.151L27.784,28.019m-9.948-9.183A3.061,3.061,0,1,0,20.9,21.9,3.07,3.07,0,0,0,17.836,18.836Z" transform="translate(-1 -2)" fill="#541871"/>
</svg>
