<svg xmlns="http://www.w3.org/2000/svg" width="32.539" height="32.539" viewBox="0 0 32.539 32.539">
  <g id="facebook" opacity="0.5">
    <path id="Path_70241" data-name="Path 70241" d="M32.539,4.766V27.773a4.768,4.768,0,0,1-4.766,4.766h-7.69l-1.907-1.907H16.27l-1.907,1.907h-9.6A4.768,4.768,0,0,1,0,27.773V4.766A4.768,4.768,0,0,1,4.766,0H27.773A4.768,4.768,0,0,1,32.539,4.766Zm0,0" transform="translate(0 0)" fill="#9faab7"/>
    <path id="Path_70242" data-name="Path 70242" d="M286.316,4.766V27.773a4.768,4.768,0,0,1-4.766,4.766h-7.69l-1.907-1.907H271V0h10.55A4.768,4.768,0,0,1,286.316,4.766Zm0,0" transform="translate(-253.777 0)" fill="#9faab7"/>
    <path id="Path_70243" data-name="Path 70243" d="M175.533,95.72v3.813h5.72l-.953,5.72h-4.766v11.567h-5.72V105.253H166v-5.72h3.813V95.72a5.752,5.752,0,0,1,2.86-4.957,5.824,5.824,0,0,1,2.86-.763h5.72v5.72Zm0,0" transform="translate(-155.45 -84.28)" fill="#fff"/>
  </g>
</svg>
