<svg xmlns="http://www.w3.org/2000/svg" width="111" height="111" viewBox="0 0 111 111">
  <g id="Group_50794" data-name="Group 50794" transform="translate(-905 -4710)">
    <circle id="Ellipse_795" data-name="Ellipse 795" cx="55.5" cy="55.5" r="55.5" transform="translate(905 4710)" fill="#eef5ff"/>
    <g id="_2786414" data-name="2786414" transform="translate(916.102 4736)">
      <path id="Path_125869" data-name="Path 125869" d="M26.946,305.421a1.756,1.756,0,0,0,2.483,0l6.508-6.508H49.8a15.684,15.684,0,0,0,11.164-4.619c3.247-3.247,7.706-7.7,10.622-10.618a1.756,1.756,0,0,0,0-2.483,8.724,8.724,0,0,0-6.209-2.572h0a8.724,8.724,0,0,0-6.209,2.572l-4.7,4.7a5.275,5.275,0,0,0-5.216-4.534H31.1a8.721,8.721,0,0,0-6.207,2.571L16.412,292.4a1.756,1.756,0,0,0,0,2.483Zm.426-19.011a5.233,5.233,0,0,1,3.724-1.543H49.255a1.76,1.76,0,0,1,1.244,3,1.727,1.727,0,0,1-1.232.511H35.21a1.756,1.756,0,0,0,0,3.511H49.8a8.721,8.721,0,0,0,6.207-2.571l5.644-5.644a5.28,5.28,0,0,1,6-1.031l-9.17,9.167A12.2,12.2,0,0,1,49.8,295.4H35.21a1.755,1.755,0,0,0-1.241.514L28.188,301.7l-8.051-8.051Z" transform="translate(0 -246.01)" fill="#4190ff"/>
      <path id="Path_125870" data-name="Path 125870" d="M176.432,111.068A10.534,10.534,0,1,0,165.9,100.534,10.546,10.546,0,0,0,176.432,111.068Zm0-17.556a7.023,7.023,0,1,1-7.023,7.023A7.031,7.031,0,0,1,176.432,93.511Z" transform="translate(-132.444 -79.466)" fill="#4190ff"/>
      <path id="Path_125871" data-name="Path 125871" d="M354.676,17.556A8.778,8.778,0,1,0,345.9,8.778,8.788,8.788,0,0,0,354.676,17.556Zm0-14.045a5.267,5.267,0,1,1-5.267,5.267A5.273,5.273,0,0,1,354.676,3.511Z" transform="translate(-291.376)" fill="#4190ff"/>
    </g>
  </g>
</svg>
