<svg xmlns="http://www.w3.org/2000/svg" width="32.955" height="32.955" viewBox="0 0 32.955 32.955">
  <g id="instagram" transform="translate(0)" opacity="0.5">
    <path id="Path_70247" data-name="Path 70247" d="M28.127,0H4.827A4.829,4.829,0,0,0,0,4.827v23.3a4.829,4.829,0,0,0,4.827,4.827h23.3a4.829,4.829,0,0,0,4.827-4.827V4.827A4.829,4.829,0,0,0,28.127,0Zm0,0" transform="translate(0 0)" fill="#9faab7"/>
    <path id="Path_70249" data-name="Path 70249" d="M364.9,65.793a2.9,2.9,0,1,1,2.9-2.9A2.9,2.9,0,0,1,364.9,65.793Zm0-3.862a.965.965,0,1,0,.965.965A.966.966,0,0,0,364.9,61.931Zm0,0" transform="translate(-338.7 -56.138)" fill="#fff" stroke="#9faab7" stroke-width="1"/>
    <path id="Path_70250" data-name="Path 70250" d="M129.689,120a8.689,8.689,0,1,0,8.754,8.689A8.7,8.7,0,0,0,129.689,120Zm0,15.447a6.759,6.759,0,1,1,6.823-6.758A6.766,6.766,0,0,1,129.689,135.447Zm0,0" transform="translate(-113.212 -112.276)" fill="#fff"/>
  </g>
</svg>
