<svg xmlns="http://www.w3.org/2000/svg" width="16.097" height="19.721" viewBox="0 0 16.097 19.721">
  <g id="Group_50783" data-name="Group 50783" transform="translate(39.152 2965.621)">
    <g id="place" transform="translate(-87.886 -2965.521)">
      <g id="Group_26926" data-name="Group 26926" transform="translate(48.886)">
        <g id="Group_26925" data-name="Group 26925">
          <path id="Path_71016" data-name="Path 71016" d="M63.262,3.394a7.882,7.882,0,0,0-12.959,0,7.883,7.883,0,0,0-.918,7.263,6.208,6.208,0,0,0,1.144,1.889l5.733,6.734a.682.682,0,0,0,1.039,0l5.732-6.733a6.214,6.214,0,0,0,1.144-1.887A7.884,7.884,0,0,0,63.262,3.394ZM62.9,10.183a4.869,4.869,0,0,1-.9,1.475l0,0-5.214,6.124-5.217-6.128a4.872,4.872,0,0,1-.9-1.479,6.521,6.521,0,0,1,.762-6.008,6.517,6.517,0,0,1,10.713,0A6.522,6.522,0,0,1,62.9,10.183Z" transform="translate(-48.886)" fill="#9faab7" stroke="#9faab7" stroke-width="0.2"/>
        </g>
      </g>
      <g id="Group_26928" data-name="Group 26928" transform="translate(52.96 4.05)">
        <g id="Group_26927" data-name="Group 26927">
          <path id="Path_71017" data-name="Path 71017" d="M159.576,106.219a3.822,3.822,0,1,0,3.822,3.822A3.827,3.827,0,0,0,159.576,106.219Zm0,6.279a2.457,2.457,0,1,1,2.457-2.457A2.46,2.46,0,0,1,159.576,112.5Z" transform="translate(-155.754 -106.219)" fill="#9faab7" stroke="#9faab7" stroke-width="0.2"/>
        </g>
      </g>
    </g>
  </g>
</svg>
