<svg xmlns="http://www.w3.org/2000/svg" width="149.916" height="28.935" viewBox="0 0 149.916 28.935">
  <g id="Group_43633" data-name="Group 43633" transform="translate(0 -0.005)">
    <g id="Group_49880" data-name="Group 49880" transform="translate(0 0.005)">
      <path id="Path_125658" data-name="Path 125658" d="M54.343,2.23a5.756,5.756,0,0,1,2.086,1.493,14.713,14.713,0,0,1,.3,20.8,13.323,13.323,0,0,1-10.633,4.069c-9.71-.456-19.375-.866-29.131-1.3l-3.647-.148c-.228,0-.479.068-.6-.262,1.14-.1,2.279-.217,3.419-.3l21.4-1.573a1.14,1.14,0,0,1,.855.228,10.918,10.918,0,0,0,9.459,2.279A14.166,14.166,0,0,0,59.3,11.462,14.611,14.611,0,0,0,54.343,2.23Z" transform="translate(1.776 0.305)" fill="#f6c80f"/>
      <path id="Path_125659" data-name="Path 125659" d="M45.725,4.176a22.007,22.007,0,0,0-3.613.479,9.722,9.722,0,0,0-5.972,14.634,9.289,9.289,0,0,0,16.833-3.864,9.893,9.893,0,0,0-3.111-8.73c-.57-.57-1.231-1.06-1.869-1.6.308-.194.536,0,.752.1a8.32,8.32,0,0,1,4.866,5.026,10.257,10.257,0,0,1-.969,10.189A9.528,9.528,0,0,1,40.016,23.1a10.052,10.052,0,0,0-1.14-.581A9.733,9.733,0,0,1,41.862,3.9a8.7,8.7,0,0,1,3.864.274Z" transform="translate(4.615 0.525)" fill="#0a0000"/>
      <path id="Path_125660" data-name="Path 125660" d="M4.46,20.54a1.6,1.6,0,0,1,.855-.251l20.742-1.311c3.066-.194,6.143-.387,9.209-.615a.935.935,0,0,1,1.083.6c.319.672.752,1.276,1.231,2.074Z" transform="translate(0.623 2.556)" fill="#f6c80f"/>
      <path id="Path_125661" data-name="Path 125661" d="M0,14.282a1.527,1.527,0,0,1,1.037-.251l24.777-1.516c2.918-.182,5.835-.342,8.753-.536.57,0,.7.137.684.672,0,1.413,0,1.413-1.425,1.425L1.14,14.282Z" transform="translate(0 1.667)" fill="#f6c80f"/>
      <path id="Path_125662" data-name="Path 125662" d="M13.87,16.54c1.254-.137,2.667-.3,4.08-.433,3.978-.387,7.978-.752,11.921-1.14.98-.1,1.96-.091,2.94-.137a.67.67,0,0,1,.786.627c.274,1.356.285,1.345-1.14,1.333l-16.5-.125a9.448,9.448,0,0,1-2.086-.125Z" transform="translate(1.938 2.066)" fill="#f6c80f"/>
      <path id="Path_125663" data-name="Path 125663" d="M27.73,1.88c6.006-.6,11.887-2.428,18.007-1.71C44.905.284,44.062.261,43.23.4a14.816,14.816,0,0,0-2.542.638,14.611,14.611,0,0,0-2.382,1.14,1,1,0,0,1-.6.125l-9.608-.365Z" transform="translate(3.874 -0.005)" fill="#f6c80f"/>
      <path id="Path_125665" data-name="Path 125665" d="M26.12,4.14,36.514,3a2.587,2.587,0,0,1-2.553,1.5l-7.83-.262Z" transform="translate(3.649 0.413)" fill="#f6c80f"/>
      <path id="Path_125666" data-name="Path 125666" d="M22.41,10.693c3.134-.513,6.257-.593,9.368-.855.228,0,.729-.285.615.308-.068.387.171,1.037-.615,1s-1.858-.091-2.792-.137Z" transform="translate(3.131 1.359)" fill="#f6c80f"/>
      <path id="Path_125667" data-name="Path 125667" d="M24.61,8.191l3.009-.342c1.641-.16,3.282-.3,4.923-.479.49,0,.57,0,.4.524a.992.992,0,0,1-1.14.786h0c-2.393-.125-4.787-.182-7.169-.274Z" transform="translate(3.438 1.023)" fill="#f6c80f"/>
      <path id="Path_125668" data-name="Path 125668" d="M34.4,5.14a1.47,1.47,0,0,1-1.7,1.14c-2.393-.068-4.787,0-7.18,0V5.915Z" transform="translate(3.565 0.712)" fill="#f6c80f"/>
      <path id="Path_107152" data-name="Path 107152" d="M47.139,10.235A1.436,1.436,0,0,0,45.725,8.89H40.54a1.436,1.436,0,0,0-1.413,1.345l-.3,5.983A1.3,1.3,0,0,0,40.061,17.6h6.063a1.311,1.311,0,0,0,1.311-1.311v-.08Zm-2.416,1.413a1.573,1.573,0,1,1-3.134,0v-1.2a.37.37,0,0,1,.741,0v1.2a.832.832,0,0,0,1.653,0v-1.2a.37.37,0,0,1,.741,0Z" transform="translate(5.424 1.236)" fill="#f6c80f"/>
    </g>
    <g id="Group_25879" data-name="Group 25879" transform="translate(70.217 5.926)">
      <g id="RoadYo">
        <g id="Group_50775" data-name="Group 50775">
          <path id="Path_125963" data-name="Path 125963" d="M61.61,5.2h6.246a6.61,6.61,0,0,1,2.279.4,5.425,5.425,0,0,1,1.812,1.14,4.946,4.946,0,0,1,1.14,1.71,5.7,5.7,0,0,1,.41,2.165,4.445,4.445,0,0,1-.3,1.618,4.559,4.559,0,0,1-.786,1.368,5.869,5.869,0,0,1-1.14,1.071,5.368,5.368,0,0,1-1.413.729v.171l4.559,6.587v.182H70.773L66.34,15.9h-1.5v6.439H61.61Zm6.223,7.75a2.519,2.519,0,0,0,1.8-.672,2.279,2.279,0,0,0,.707-1.7,2.439,2.439,0,0,0-.16-.889,2.131,2.131,0,0,0-.467-.764,2.279,2.279,0,0,0-.821-.536,2.587,2.587,0,0,0-1.06-.205h-3V12.95Z" transform="translate(-61.61 -5.2)" fill="#0b0101"/>
          <path id="Path_125964" data-name="Path 125964" d="M79.77,9.61a6.416,6.416,0,0,1,2.507.467,5.926,5.926,0,0,1,1.96,1.288,5.858,5.858,0,0,1,1.231,1.972,6.519,6.519,0,0,1,.467,2.519,6.416,6.416,0,0,1-.467,2.507,5.7,5.7,0,0,1-3.248,3.271,6.633,6.633,0,0,1-2.507.467,6.531,6.531,0,0,1-2.5-.467,5.8,5.8,0,0,1-3.26-3.271,6.633,6.633,0,0,1-.467-2.507,6.736,6.736,0,0,1,.467-2.519,5.7,5.7,0,0,1,1.254-1.972,5.812,5.812,0,0,1,2.006-1.311A6.325,6.325,0,0,1,79.77,9.61Zm0,9.562a3.145,3.145,0,0,0,1.14-.228,2.906,2.906,0,0,0,.992-.661,3.214,3.214,0,0,0,.684-1.049,4.108,4.108,0,0,0,0-2.826A3.1,3.1,0,0,0,81.9,13.36a2.758,2.758,0,0,0-.992-.661,3.111,3.111,0,0,0-2.279,0,2.815,2.815,0,0,0-.98.661,3.1,3.1,0,0,0-.684,1.049,3.909,3.909,0,0,0-.251,1.413,3.955,3.955,0,0,0,.251,1.413,3.214,3.214,0,0,0,.684,1.049,2.975,2.975,0,0,0,.98.661,3.168,3.168,0,0,0,1.14.228Z" transform="translate(-59.95 -4.584)" fill="#0b0101"/>
          <path id="Path_125965" data-name="Path 125965" d="M93.488,20.477h-.194a5.231,5.231,0,0,1-1.333,1.14,3.75,3.75,0,0,1-1.994.479,4.992,4.992,0,0,1-1.71-.3,4.559,4.559,0,0,1-1.4-.832,3.806,3.806,0,0,1-.935-1.265,4.046,4.046,0,0,1-.331-1.664,3.544,3.544,0,0,1,1.368-2.895,4.376,4.376,0,0,1,1.516-.8,6.348,6.348,0,0,1,1.9-.274,8.718,8.718,0,0,1,1.892.171,10.689,10.689,0,0,1,1.219.376v-.365a1.926,1.926,0,0,0-.741-1.539A2.815,2.815,0,0,0,90.9,12.1a3.419,3.419,0,0,0-2.758,1.379l-2.279-1.561a6.154,6.154,0,0,1,5.094-2.336,6.075,6.075,0,0,1,4.217,1.311,4.821,4.821,0,0,1,1.436,3.8V21.72H93.488Zm0-3.522a6.838,6.838,0,0,0-1.14-.41,4.559,4.559,0,0,0-1.276-.16,2.712,2.712,0,0,0-1.744.49,1.516,1.516,0,0,0-.6,1.162,1.356,1.356,0,0,0,.581,1.14,2.279,2.279,0,0,0,1.356.433,2.963,2.963,0,0,0,1.14-.228,2.781,2.781,0,0,0,.889-.6,2.587,2.587,0,0,0,.581-.855,2.655,2.655,0,0,0,.217-.969Z" transform="translate(-58.26 -4.59)" fill="#0b0101"/>
          <path id="Path_125966" data-name="Path 125966" d="M106.157,20.928h-.194A3.522,3.522,0,0,1,104.63,22.2a4.433,4.433,0,0,1-2.279.524,5.14,5.14,0,0,1-2.143-.467,5.7,5.7,0,0,1-1.8-1.333,5.949,5.949,0,0,1-1.231-1.983,6.633,6.633,0,0,1-.456-2.507,6.735,6.735,0,0,1,.456-2.519,5.9,5.9,0,0,1,1.231-1.972,5.7,5.7,0,0,1,1.789-1.276,4.969,4.969,0,0,1,2.143-.467,4.433,4.433,0,0,1,2.279.524,3.579,3.579,0,0,1,1.333,1.265h.205l-.194-1.675V5.2H109.1V22.3h-2.94Zm-3.134-1.14a3.225,3.225,0,0,0,1.14-.228,2.906,2.906,0,0,0,.992-.661,3.419,3.419,0,0,0,.7-1.049,3.715,3.715,0,0,0,.262-1.413,3.67,3.67,0,0,0-.262-1.413,3.305,3.305,0,0,0-.7-1.049,2.758,2.758,0,0,0-.992-.661,3.123,3.123,0,0,0-2.371,0,2.94,2.94,0,0,0-.992.672,3.237,3.237,0,0,0-.7,1.049,3.819,3.819,0,0,0,0,2.781,3.237,3.237,0,0,0,.7,1.049,3.111,3.111,0,0,0,.992.672,3.02,3.02,0,0,0,1.2.251Z" transform="translate(-56.705 -5.2)" fill="#0b0101"/>
          <path id="Path_125967" data-name="Path 125967" d="M114.7,14.363,109,5.2h3.852l3.419,5.7h.182l3.305-5.7h3.9l-5.7,9.118V22.3H114.7Z" transform="translate(-54.99 -5.2)" fill="#0b0101"/>
          <path id="Path_125968" data-name="Path 125968" d="M126.813,9.61a6.416,6.416,0,0,1,2.507.467,5.927,5.927,0,0,1,1.994,1.288,6.064,6.064,0,0,1,1.3,1.972,6.735,6.735,0,0,1,.456,2.519,6.633,6.633,0,0,1-.456,2.507,6.109,6.109,0,0,1-1.3,1.949,5.927,5.927,0,0,1-1.96,1.288,6.929,6.929,0,0,1-5,0,5.926,5.926,0,0,1-1.994-1.288,6.109,6.109,0,0,1-1.3-1.949,6.633,6.633,0,0,1-.467-2.507,6.736,6.736,0,0,1,.467-2.519,6.063,6.063,0,0,1,1.3-1.972,5.926,5.926,0,0,1,1.96-1.311,6.359,6.359,0,0,1,2.5-.444Zm0,9.6a3.146,3.146,0,0,0,1.14-.228,3.043,3.043,0,0,0,1.675-1.71,4.108,4.108,0,0,0,0-2.826,2.792,2.792,0,0,0-.684-1.049,2.758,2.758,0,0,0-.992-.661,2.941,2.941,0,0,0-1.14-.228,2.861,2.861,0,0,0-1.14.228,2.713,2.713,0,0,0-.98.661,2.792,2.792,0,0,0-.684,1.049,4.108,4.108,0,0,0,0,2.826,2.874,2.874,0,0,0,2.8,1.9Z" transform="translate(-53.371 -4.584)" fill="#0b0101"/>
        </g>
      </g>
    </g>
  </g>
</svg>
