<svg xmlns="http://www.w3.org/2000/svg" width="111" height="111" viewBox="0 0 111 111">
  <g id="Group_50795" data-name="Group 50795" transform="translate(-1303 -4710)">
    <circle id="Ellipse_795" data-name="Ellipse 795" cx="55.5" cy="55.5" r="55.5" transform="translate(1303 4710)" fill="#dfffde"/>
    <g id="_2786494" data-name="2786494" transform="translate(1275.996 4738)">
      <g id="Group_49711" data-name="Group 49711" transform="translate(61.004 0)">
        <path id="Path_125872" data-name="Path 125872" d="M101.633,6.5A30.485,30.485,0,0,1,84.67,1.366L83.032.274a1.621,1.621,0,0,0-1.8,0L79.592,1.366A30.483,30.483,0,0,1,62.629,6.5,1.624,1.624,0,0,0,61,8.127V26.79a30.108,30.108,0,0,0,20.613,28.6,1.614,1.614,0,0,0,1.028,0,30.108,30.108,0,0,0,20.613-28.6V8.127A1.624,1.624,0,0,0,101.633,6.5ZM100.008,26.79A26.86,26.86,0,0,1,82.131,52.129,26.86,26.86,0,0,1,64.254,26.79V9.714A33.719,33.719,0,0,0,81.395,4.07l.736-.49.736.49a33.72,33.72,0,0,0,17.14,5.644ZM78.4,28.322a1.625,1.625,0,0,0-2.3,2.3l3.25,3.25a1.624,1.624,0,0,0,2.3,0l6.5-6.5a1.625,1.625,0,0,0-2.3-2.3l-5.352,5.352Zm-10.9-.476A14.626,14.626,0,1,0,82.131,13.219,14.643,14.643,0,0,0,67.5,27.845Zm26,0A11.376,11.376,0,1,1,82.131,16.469,11.39,11.39,0,0,1,93.507,27.845Z" transform="translate(-61.004 0)" fill="#08be00"/>
      </g>
    </g>
  </g>
</svg>
