<svg xmlns="http://www.w3.org/2000/svg" width="37.926" height="31.04" viewBox="0 0 37.926 31.04">
  <g id="twitter" transform="translate(0 0)">
    <path id="Path_70245" data-name="Path 70245" d="M14.149,31.044a32.542,32.542,0,0,1-5.026-.4,23.581,23.581,0,0,1-6.876-2.5L0,26.915l2.433-.8c2.659-.875,4.277-1.417,6.28-2.267a8.354,8.354,0,0,1-4.295-4.976l-.566-1.718.464.071a8.427,8.427,0,0,1-1.057-1.3A8,8,0,0,1,1.9,11.165l.106-1.5.9.348a8.392,8.392,0,0,1-.813-2.28,8.676,8.676,0,0,1,.924-5.841L3.8.456,4.846,1.713A19.251,19.251,0,0,0,17.317,8.734a7.459,7.459,0,0,1,.453-3.963,7.419,7.419,0,0,1,3.017-3.459A9.061,9.061,0,0,1,26.045.021,8.4,8.4,0,0,1,31.208,2.15a17.267,17.267,0,0,0,1.89-.63c.414-.156.884-.333,1.472-.536L36.736.238,35.323,4.273c.093-.008.189-.014.29-.019l2.314-.1L36.559,6.018c-.078.107-.1.137-.126.179-.11.166-.247.373-2.124,2.879a3.536,3.536,0,0,0-.661,2.3,21.774,21.774,0,0,1-1.188,8.758A15.494,15.494,0,0,1,28.3,26.3a18.372,18.372,0,0,1-8.71,4.211,26.793,26.793,0,0,1-5.44.534Zm0,0" transform="translate(0 -0.004)" fill="#ffcd00"/>
    <path id="Path_70246" data-name="Path 70246" d="M272.146,4.269,273.559.234,271.392.98c-.588.2-1.058.38-1.472.536a17.207,17.207,0,0,1-1.889.631A8.4,8.4,0,0,0,262.867.018a9.06,9.06,0,0,0-5.258,1.291,7.821,7.821,0,0,0-1.84,1.558V30.632q.324-.058.643-.124a18.376,18.376,0,0,0,8.71-4.211,15.5,15.5,0,0,0,4.16-6.163,21.777,21.777,0,0,0,1.188-8.758,3.532,3.532,0,0,1,.661-2.3c1.877-2.506,2.014-2.713,2.125-2.879.027-.042.048-.072.126-.179l1.367-1.869-2.313.1c-.1,0-.2.011-.29.019Zm0,0" transform="translate(-236.823 0)" fill="#ffcd00"/>
  </g>
</svg>
