<svg xmlns="http://www.w3.org/2000/svg" width="111" height="111" viewBox="0 0 111 111">
  <g id="Group_50793" data-name="Group 50793" transform="translate(-507 -4710)">
    <circle id="Ellipse_795" data-name="Ellipse 795" cx="55.5" cy="55.5" r="55.5" transform="translate(507 4710)" fill="#ffecfc"/>
    <g id="_3237552" data-name="3237552" transform="translate(530 4707)">
      <path id="Path_125866" data-name="Path 125866" d="M137.642,121a16.642,16.642,0,1,0,16.642,16.642A16.66,16.66,0,0,0,137.642,121Zm0,29.585a12.943,12.943,0,1,1,12.943-12.943A12.958,12.958,0,0,1,137.642,150.585Z" transform="translate(-106.084 -78.906)" fill="#f0f"/>
      <path id="Path_125867" data-name="Path 125867" d="M205.667,181a1.849,1.849,0,0,0-1.849,1.849v6.63l-4.686,4.686a1.849,1.849,0,1,0,2.615,2.615l5.228-5.228a1.849,1.849,0,0,0,.542-1.308v-7.4A1.849,1.849,0,0,0,205.667,181Z" transform="translate(-174.11 -131.509)" fill="#f0f"/>
      <path id="Path_125868" data-name="Path 125868" d="M61.266,56.887H59.223A24.07,24.07,0,0,0,35.255,34.7h-7.4a24.432,24.432,0,0,0-5.174.632A12.774,12.774,0,0,0,13.067,31a1.849,1.849,0,0,0-1.849,1.849v8.68A24.232,24.232,0,0,0,5.7,49.491H1.849A1.849,1.849,0,0,0,0,51.34V66.132a1.849,1.849,0,0,0,1.849,1.849H5.693a24.125,24.125,0,0,0,9.223,10.932v5.709a1.849,1.849,0,0,0,1.849,1.849h7.4a1.849,1.849,0,0,0,1.849-1.849V82.7c.625.05,1.242.076,1.849.076h7.4c.6,0,1.216-.027,1.849-.081v1.93a1.849,1.849,0,0,0,1.849,1.849h7.4A1.849,1.849,0,0,0,48.2,84.623V78.97a24.221,24.221,0,0,0,7.775-8.057,23.931,23.931,0,0,0,3.246-10.328h2.046a1.849,1.849,0,0,0,0-3.7ZM45.423,76.332a1.849,1.849,0,0,0-.922,1.6v4.842H40.8V80.592a1.85,1.85,0,0,0-2.156-1.823,20.346,20.346,0,0,1-3.391.307h-7.4a20.512,20.512,0,0,1-3.391-.294,1.85,1.85,0,0,0-2.156,1.823v2.168h-3.7v-4.9a1.849,1.849,0,0,0-.918-1.6A20.4,20.4,0,0,1,8.7,65.515,1.849,1.849,0,0,0,6.96,64.283H3.7V53.189H6.96A1.849,1.849,0,0,0,8.7,51.957a20.406,20.406,0,0,1,5.6-8.253,1.849,1.849,0,0,0,.61-1.372V34.884a9.2,9.2,0,0,1,5.571,3.6,1.849,1.849,0,0,0,1.914.7,23.369,23.369,0,0,1,5.458-.79h7.4A20.327,20.327,0,0,1,45.423,76.332Z" transform="translate(0 0)" fill="#f0f"/>
    </g>
  </g>
</svg>
